<svg width="16" height="16" viewBox="0 0 16 16" fill="none" xmlns="http://www.w3.org/2000/svg">
<path d="M4.66634 0H1.99967C1.82286 0 1.65329 0.0702379 1.52827 0.195262C1.40325 0.320286 1.33301 0.489856 1.33301 0.666667C1.33301 0.843478 1.40325 1.01305 1.52827 1.13807C1.65329 1.2631 1.82286 1.33333 1.99967 1.33333H2.66634V2.66667H3.99967V1.33333H4.66634C4.84315 1.33333 5.01272 1.2631 5.13775 1.13807C5.26277 1.01305 5.33301 0.843478 5.33301 0.666667C5.33301 0.489856 5.26277 0.320286 5.13775 0.195262C5.01272 0.0702379 4.84315 0 4.66634 0V0Z" fill="#202225"/>
<path d="M14.0003 0H11.3337C11.1568 0 10.9873 0.0702379 10.8623 0.195262C10.7372 0.320286 10.667 0.489856 10.667 0.666667C10.667 0.843478 10.7372 1.01305 10.8623 1.13807C10.9873 1.2631 11.1568 1.33333 11.3337 1.33333H12.0003V2.66667H13.3337V1.33333H14.0003C14.1771 1.33333 14.3467 1.2631 14.4717 1.13807C14.5968 1.01305 14.667 0.843478 14.667 0.666667C14.667 0.489856 14.5968 0.320286 14.4717 0.195262C14.3467 0.0702379 14.1771 0 14.0003 0V0Z" fill="#202225"/>
<path d="M15.3333 4H0.666667C0.489856 4 0.320286 4.07024 0.195262 4.19526C0.0702379 4.32029 0 4.48986 0 4.66667L0 15.3333C0 15.5101 0.0702379 15.6797 0.195262 15.8047C0.320286 15.9298 0.489856 16 0.666667 16H15.3333C15.5101 16 15.6797 15.9298 15.8047 15.8047C15.9298 15.6797 16 15.5101 16 15.3333V4.66667C16 4.48986 15.9298 4.32029 15.8047 4.19526C15.6797 4.07024 15.5101 4 15.3333 4ZM3.33333 6.66667H6V8H3.33333V6.66667ZM12.6667 12.6667C12.6667 12.8435 12.5964 13.013 12.4714 13.1381C12.3464 13.2631 12.1768 13.3333 12 13.3333H4C3.82319 13.3333 3.65362 13.2631 3.5286 13.1381C3.40357 13.013 3.33333 12.8435 3.33333 12.6667V10.6667C3.33333 10.4899 3.40357 10.3203 3.5286 10.1953C3.65362 10.0702 3.82319 10 4 10H12C12.1768 10 12.3464 10.0702 12.4714 10.1953C12.5964 10.3203 12.6667 10.4899 12.6667 10.6667V12.6667ZM12.6667 8H10V6.66667H12.6667V8Z" fill="#202225"/>
</svg>
