<svg width="28" height="28" viewBox="0 0 28 28" fill="none" xmlns="http://www.w3.org/2000/svg">
<path d="M13.9998 3.89062C8.41534 3.89062 3.88867 8.41729 3.88867 14.0017C3.88867 19.5862 8.41534 24.1128 13.9998 24.1128C19.5842 24.1128 24.1109 19.5862 24.1109 14.0017C24.1109 8.41729 19.5842 3.89062 13.9998 3.89062ZM13.9998 5.44618C18.7178 5.44618 22.5553 9.28374 22.5553 14.0017C22.5553 18.7197 18.7178 22.5573 13.9998 22.5573C9.28178 22.5573 5.44423 18.7197 5.44423 14.0017C5.44423 9.28374 9.28178 5.44618 13.9998 5.44618ZM19.8635 10.5169C18.3157 10.5185 17.5036 11.5736 17.0836 12.7014C17.0836 12.7014 16.2101 15.4424 16.1447 15.6758C16.1199 15.4424 15.4794 10.52 15.4794 10.52C13.9876 10.52 13.1954 11.5736 12.7754 12.7014C12.7754 12.7014 11.7141 15.4531 11.627 15.6849C11.6223 15.4671 11.4659 12.7318 11.4659 12.7318C11.3757 11.3567 10.121 10.523 9.10525 10.523L10.3296 17.9848C11.8914 17.9801 12.7301 16.9235 13.1704 15.8003C13.1704 15.8003 14.1052 13.3755 14.1456 13.2635C14.1565 13.3692 14.8171 17.9848 14.8171 17.9848C16.3788 17.9848 17.2233 16.9954 17.679 15.9128L19.8635 10.5169Z" fill="#202225"/>
</svg>
