<svg width="31" height="31" viewBox="0 0 31 31" fill="none" xmlns="http://www.w3.org/2000/svg">
<g clip-path="url(#clip0_1301_72394)">
<path d="M16.4961 0.733398C15.9453 0.182617 15.0547 0.182617 14.5098 0.733398L10.2852 4.95215C9.73438 5.50293 9.73438 6.39356 10.2852 6.93848C10.8359 7.4834 11.7266 7.48926 12.2715 6.93848L14.0879 5.12207L14.0938 13.917H5.29883L7.11523 12.1006C7.66602 11.5498 7.66602 10.6592 7.11523 10.1143C6.56445 9.56934 5.67383 9.56348 5.12891 10.1143L0.910156 14.3271C0.359375 14.8779 0.359375 15.7686 0.910156 16.3135L5.12891 20.5322C5.67969 21.083 6.57031 21.083 7.11523 20.5322C7.66016 19.9814 7.66602 19.0908 7.11523 18.5459L5.29883 16.7295H14.0938V25.5244L12.2773 23.708C11.7266 23.1572 10.8359 23.1572 10.291 23.708C9.74609 24.2588 9.74024 25.1494 10.291 25.6943L14.5098 29.9131C15.0605 30.4639 15.9512 30.4639 16.4961 29.9131L20.7148 25.6943C21.2656 25.1436 21.2656 24.2529 20.7148 23.708C20.1641 23.1631 19.2734 23.1572 18.7285 23.708L16.9121 25.5244L16.9062 16.7295H25.7012L23.8848 18.5459C23.334 19.0967 23.334 19.9873 23.8848 20.5322C24.4355 21.0771 25.3262 21.083 25.8711 20.5322L30.0898 16.3135C30.6406 15.7627 30.6406 14.8721 30.0898 14.3271L25.8711 10.1084C25.3203 9.55762 24.4297 9.55762 23.8848 10.1084C23.3398 10.6592 23.334 11.5498 23.8848 12.0947L25.7012 13.9111L16.9062 13.917V5.12207L18.7227 6.93848C19.2734 7.48926 20.1641 7.48926 20.709 6.93848C21.2539 6.3877 21.2598 5.49707 20.709 4.95215L16.4961 0.733398Z" fill="black"/>
</g>
<defs>
<clipPath id="clip0_1301_72394">
<rect width="30" height="30" fill="white" transform="translate(0.5 0.324219)"/>
</clipPath>
</defs>
</svg>
