<svg width="28" height="24" viewBox="0 0 28 24" fill="none" xmlns="http://www.w3.org/2000/svg">
<g clip-path="url(#clip0_1286_3310)">
<path d="M5.57187 3.32988C6.21875 3.85019 6.32187 4.79238 5.80625 5.43925C4.3625 7.23925 3.5 9.51738 3.5 12.0018C3.5 14.4861 4.3625 16.7643 5.80156 18.5643C6.32187 19.2111 6.21406 20.1533 5.56719 20.6736C4.92031 21.1939 3.97812 21.0861 3.45781 20.4393C1.61094 18.1283 0.5 15.1939 0.5 12.0018C0.5 8.80957 1.61094 5.87519 3.4625 3.56425C3.98281 2.91738 4.925 2.81425 5.57187 3.32988ZM22.4328 3.32988C23.0797 2.80957 24.0219 2.91738 24.5422 3.56425C26.3891 5.87519 27.5 8.80957 27.5 12.0018C27.5 15.1939 26.3891 18.1283 24.5375 20.4393C24.0172 21.0861 23.075 21.1893 22.4281 20.6736C21.7812 20.158 21.6781 19.2111 22.1937 18.5643C23.6328 16.7643 24.4953 14.4861 24.4953 12.0018C24.4953 9.51738 23.6328 7.23925 22.1937 5.43925C21.6734 4.79238 21.7812 3.85019 22.4281 3.32988H22.4328ZM11.375 12.0018C11.375 11.3056 11.6516 10.6379 12.1438 10.1456C12.6361 9.65331 13.3038 9.37675 14 9.37675C14.6962 9.37675 15.3639 9.65331 15.8562 10.1456C16.3484 10.6379 16.625 11.3056 16.625 12.0018C16.625 12.6979 16.3484 13.3656 15.8562 13.8579C15.3639 14.3502 14.6962 14.6268 14 14.6268C13.3038 14.6268 12.6361 14.3502 12.1438 13.8579C11.6516 13.3656 11.375 12.6979 11.375 12.0018ZM10.0859 8.50019C9.25156 9.42832 8.75 10.6564 8.75 12.0018C8.75 13.3471 9.25625 14.5705 10.0859 15.5033C10.6391 16.1221 10.5875 17.0689 9.96875 17.6221C9.35 18.1752 8.40313 18.1236 7.85 17.5049C6.54688 16.0424 5.75 14.1158 5.75 12.0018C5.75 9.88769 6.54688 7.96113 7.85 6.50332C8.40313 5.88457 9.35 5.833 9.96875 6.38613C10.5875 6.93925 10.6391 7.88613 10.0859 8.50488V8.50019ZM20.15 6.49863C21.4531 7.96113 22.25 9.88769 22.25 12.0018C22.25 14.1158 21.4531 16.0424 20.15 17.5002C19.5969 18.1189 18.65 18.1705 18.0312 17.6174C17.4125 17.0643 17.3609 16.1174 17.9141 15.4986C18.7484 14.5705 19.25 13.3424 19.25 11.9971C19.25 10.6518 18.7438 9.42832 17.9141 8.4955C17.3609 7.87675 17.4125 6.92988 18.0312 6.37675C18.65 5.82363 19.5969 5.87519 20.15 6.49394V6.49863Z" fill="white"/>
</g>
<defs>
<clipPath id="clip0_1286_3310">
<rect width="27" height="24" fill="white" transform="translate(0.5)"/>
</clipPath>
</defs>
</svg>
