<svg width="31" height="31" viewBox="0 0 31 31" fill="none" xmlns="http://www.w3.org/2000/svg">
<g clip-path="url(#clip0_1301_72405)">
<path d="M1.90625 2.19922C2.68555 2.19922 3.3125 2.82617 3.3125 3.60547V24.2305C3.3125 25.0098 3.93945 25.6367 4.71875 25.6367H29.0938C29.873 25.6367 30.5 26.2637 30.5 27.043C30.5 27.8223 29.873 28.4492 29.0938 28.4492H4.71875C2.38672 28.4492 0.5 26.5625 0.5 24.2305V3.60547C0.5 2.82617 1.12695 2.19922 1.90625 2.19922ZM8 8.29297C8 7.51367 8.62695 6.88672 9.40625 6.88672H15.9688C16.748 6.88672 17.375 7.51367 17.375 8.29297C17.375 9.07227 16.748 9.69922 15.9688 9.69922H9.40625C8.62695 9.69922 8 9.07227 8 8.29297ZM13.1562 12.5117H21.5938C22.373 12.5117 23 13.1387 23 13.918C23 14.6973 22.373 15.3242 21.5938 15.3242H13.1562C12.377 15.3242 11.75 14.6973 11.75 13.918C11.75 13.1387 12.377 12.5117 13.1562 12.5117ZM22.5312 18.1367H27.2188C27.998 18.1367 28.625 18.7637 28.625 19.543C28.625 20.3223 27.998 20.9492 27.2188 20.9492H22.5312C21.752 20.9492 21.125 20.3223 21.125 19.543C21.125 18.7637 21.752 18.1367 22.5312 18.1367Z" fill="black"/>
</g>
<defs>
<clipPath id="clip0_1301_72405">
<rect width="30" height="30" fill="white" transform="translate(0.5 0.324219)"/>
</clipPath>
</defs>
</svg>
