<svg width="31" height="31" viewBox="0 0 31 31" fill="none" xmlns="http://www.w3.org/2000/svg">
<path d="M10.8125 5.01172H5.1875V10.6367H10.8125V5.01172ZM5.1875 2.19922H10.8125C12.3652 2.19922 13.625 3.45898 13.625 5.01172V10.6367C13.625 12.1895 12.3652 13.4492 10.8125 13.4492H5.1875C3.63477 13.4492 2.375 12.1895 2.375 10.6367V5.01172C2.375 3.45898 3.63477 2.19922 5.1875 2.19922ZM10.8125 20.0117H5.1875V25.6367H10.8125V20.0117ZM5.1875 17.1992H10.8125C12.3652 17.1992 13.625 18.459 13.625 20.0117V25.6367C13.625 27.1895 12.3652 28.4492 10.8125 28.4492H5.1875C3.63477 28.4492 2.375 27.1895 2.375 25.6367V20.0117C2.375 18.459 3.63477 17.1992 5.1875 17.1992ZM20.1875 5.01172V10.6367H25.8125V5.01172H20.1875ZM17.375 5.01172C17.375 3.45898 18.6348 2.19922 20.1875 2.19922H25.8125C27.3652 2.19922 28.625 3.45898 28.625 5.01172V10.6367C28.625 12.1895 27.3652 13.4492 25.8125 13.4492H20.1875C18.6348 13.4492 17.375 12.1895 17.375 10.6367V5.01172ZM23 16.2617C23.7793 16.2617 24.4062 16.8887 24.4062 17.668V21.418H28.1562C28.9355 21.418 29.5625 22.0449 29.5625 22.8242C29.5625 23.6035 28.9355 24.2305 28.1562 24.2305H24.4062V27.9805C24.4062 28.7598 23.7793 29.3867 23 29.3867C22.2207 29.3867 21.5938 28.7598 21.5938 27.9805V24.2305H17.8438C17.0645 24.2305 16.4375 23.6035 16.4375 22.8242C16.4375 22.0449 17.0645 21.418 17.8438 21.418H21.5938V17.668C21.5938 16.8887 22.2207 16.2617 23 16.2617Z" fill="black"/>
</svg>
