<svg width="33" height="32" viewBox="0 0 33 32" fill="none" xmlns="http://www.w3.org/2000/svg">
<g clip-path="url(#clip0_1212_2710)">
<path d="M13.79 26C13.79 24.3438 12.4463 23 10.79 23H4.79004C4.24004 23 3.79004 22.55 3.79004 22V4C3.79004 3.45 4.24004 3 4.79004 3H28.79C29.34 3 29.79 3.45 29.79 4V22C29.79 22.55 29.34 23 28.79 23H20.1213C19.4713 23 18.84 23.2125 18.3213 23.6L13.79 27V26ZM13.7775 30.7625L13.79 30.75L20.1213 26H28.79C30.9963 26 32.79 24.2062 32.79 22V4C32.79 1.79375 30.9963 0 28.79 0H4.79004C2.58379 0 0.790039 1.79375 0.790039 4V22C0.790039 24.2062 2.58379 26 4.79004 26H7.79004H10.79V29V29.25V29.2687V29.6688V31C10.79 31.3813 11.0025 31.725 11.34 31.8937C11.6775 32.0625 12.0838 32.025 12.39 31.8L13.4588 31L13.7775 30.7625ZM9.79004 15C10.3205 15 10.8292 14.7893 11.2043 14.4142C11.5793 14.0391 11.79 13.5304 11.79 13C11.79 12.4696 11.5793 11.9609 11.2043 11.5858C10.8292 11.2107 10.3205 11 9.79004 11C9.25961 11 8.7509 11.2107 8.37583 11.5858C8.00075 11.9609 7.79004 12.4696 7.79004 13C7.79004 13.5304 8.00075 14.0391 8.37583 14.4142C8.7509 14.7893 9.25961 15 9.79004 15ZM18.79 13C18.79 12.4696 18.5793 11.9609 18.2043 11.5858C17.8292 11.2107 17.3205 11 16.79 11C16.2596 11 15.7509 11.2107 15.3758 11.5858C15.0008 11.9609 14.79 12.4696 14.79 13C14.79 13.5304 15.0008 14.0391 15.3758 14.4142C15.7509 14.7893 16.2596 15 16.79 15C17.3205 15 17.8292 14.7893 18.2043 14.4142C18.5793 14.0391 18.79 13.5304 18.79 13ZM23.79 15C24.3205 15 24.8292 14.7893 25.2043 14.4142C25.5793 14.0391 25.79 13.5304 25.79 13C25.79 12.4696 25.5793 11.9609 25.2043 11.5858C24.8292 11.2107 24.3205 11 23.79 11C23.2596 11 22.7509 11.2107 22.3758 11.5858C22.0008 11.9609 21.79 12.4696 21.79 13C21.79 13.5304 22.0008 14.0391 22.3758 14.4142C22.7509 14.7893 23.2596 15 23.79 15Z" fill="#202225"/>
</g>
<defs>
<clipPath id="clip0_1212_2710">
<rect width="32" height="32" fill="white" transform="translate(0.790039)"/>
</clipPath>
</defs>
</svg>
