<svg width="31" height="31" viewBox="0 0 31 31" fill="none" xmlns="http://www.w3.org/2000/svg">
<g clip-path="url(#clip0_1301_72381)">
<path d="M3.3125 3.41797C3.3125 2.63867 2.68555 2.01172 1.90625 2.01172C1.12695 2.01172 0.5 2.63867 0.5 3.41797V24.043C0.5 26.375 2.38672 28.2617 4.71875 28.2617H29.0938C29.873 28.2617 30.5 27.6348 30.5 26.8555C30.5 26.0762 29.873 25.4492 29.0938 25.4492H4.71875C3.93945 25.4492 3.3125 24.8223 3.3125 24.043V3.41797ZM19.25 9.04297C19.25 9.82227 19.877 10.4492 20.6562 10.4492H23.8262L18.3125 15.9629L13.6836 11.334C13.1328 10.7832 12.2422 10.7832 11.6973 11.334L7.00977 16.0215C6.45898 16.5723 6.45898 17.4629 7.00977 18.0078C7.56055 18.5527 8.45117 18.5586 8.99609 18.0078L12.6875 14.3164L17.3164 18.9453C17.8672 19.4961 18.7578 19.4961 19.3027 18.9453L25.8066 12.4414V15.6113C25.8066 16.3906 26.4336 17.0176 27.2129 17.0176C27.9922 17.0176 28.6191 16.3906 28.6191 15.6113V9.04883C28.6191 8.26953 27.9922 7.64258 27.2129 7.64258H20.6504C19.8711 7.64258 19.2441 8.26953 19.2441 9.04883L19.25 9.04297Z" fill="black"/>
</g>
<defs>
<clipPath id="clip0_1301_72381">
<rect width="30" height="30" fill="white" transform="translate(0.5 0.136719)"/>
</clipPath>
</defs>
</svg>
