<svg width="37" height="32" viewBox="0 0 37 32" fill="none" xmlns="http://www.w3.org/2000/svg">
<g clip-path="url(#clip0_1212_2703)">
<path d="M32.79 5H4.79004C4.24004 5 3.79004 5.45 3.79004 6V12.0688C3.29629 12.025 2.79629 12 2.29004 12H0.790039V6C0.790039 3.79375 2.58379 2 4.79004 2H32.79C34.9963 2 36.79 3.79375 36.79 6V26C36.79 28.2062 34.9963 30 32.79 30H18.79V28.5C18.79 27.9937 18.765 27.4937 18.7213 27H32.79C33.34 27 33.79 26.55 33.79 26V6C33.79 5.45 33.34 5 32.79 5ZM2.29004 14C10.2963 14 16.79 20.4937 16.79 28.5C16.79 29.3312 16.1213 30 15.29 30C14.4588 30 13.79 29.3312 13.79 28.5C13.79 22.15 8.64004 17 2.29004 17C1.45879 17 0.790039 16.3313 0.790039 15.5C0.790039 14.6687 1.45879 14 2.29004 14ZM2.79004 26C3.32047 26 3.82918 26.2107 4.20425 26.5858C4.57933 26.9609 4.79004 27.4696 4.79004 28C4.79004 28.5304 4.57933 29.0391 4.20425 29.4142C3.82918 29.7893 3.32047 30 2.79004 30C2.25961 30 1.7509 29.7893 1.37583 29.4142C1.00075 29.0391 0.790039 28.5304 0.790039 28C0.790039 27.4696 1.00075 26.9609 1.37583 26.5858C1.7509 26.2107 2.25961 26 2.79004 26ZM0.790039 21.5C0.790039 20.6688 1.45879 20 2.29004 20C6.98379 20 10.79 23.8062 10.79 28.5C10.79 29.3312 10.1213 30 9.29004 30C8.45879 30 7.79004 29.3312 7.79004 28.5C7.79004 25.4625 5.32754 23 2.29004 23C1.45879 23 0.790039 22.3312 0.790039 21.5Z" fill="#202225"/>
</g>
<defs>
<clipPath id="clip0_1212_2703">
<rect width="36" height="32" fill="white" transform="translate(0.790039)"/>
</clipPath>
</defs>
</svg>
