<svg width="25" height="32" viewBox="0 0 25 32" fill="none" xmlns="http://www.w3.org/2000/svg">
<g clip-path="url(#clip0_1212_2717)">
<path d="M9.20258 3.23125L8.52758 12.0375C8.45883 12.95 7.97758 13.775 7.22133 14.2875C5.72758 15.3 4.60883 16.8375 4.15258 18.6812L4.07133 19H11.2901V13.5C11.2901 12.6687 11.9588 12 12.7901 12C13.6213 12 14.2901 12.6687 14.2901 13.5V19H21.5088L21.4276 18.6812C20.9651 16.8375 19.8526 15.3 18.3588 14.2937C17.6026 13.7812 17.1213 12.95 17.0526 12.0437L16.3776 3.23125C16.3713 3.15625 16.3713 3.075 16.3713 3H9.21508C9.21508 3.075 9.21508 3.15625 9.20883 3.23125H9.20258ZM11.2901 22H2.79008C2.17133 22 1.59008 21.7188 1.21508 21.2313C0.840084 20.7438 0.702584 20.1125 0.852584 19.5125L1.24008 17.95C1.88383 15.3688 3.45258 13.2188 5.53383 11.8062L5.98383 6L6.21508 3H4.29008C4.01508 3 3.75258 2.925 3.52758 2.79375C3.09008 2.53125 2.79008 2.05 2.79008 1.5C2.79008 0.66875 3.45883 0 4.29008 0H6.21508H19.3651H21.2901C22.1213 0 22.7901 0.66875 22.7901 1.5C22.7901 2.05 22.4901 2.53125 22.0526 2.79375C21.8276 2.925 21.5713 3 21.2901 3H19.3651L19.5963 6L20.0401 11.8062C22.1213 13.2188 23.6901 15.375 24.3338 17.95L24.7213 19.5125C24.8713 20.1125 24.7338 20.7438 24.3588 21.2313C23.9838 21.7188 23.3963 22 22.7838 22H14.2838V30.5C14.2838 31.3312 13.6151 32 12.7838 32C11.9526 32 11.2838 31.3312 11.2838 30.5V22H11.2901Z" fill="#202225"/>
</g>
<defs>
<clipPath id="clip0_1212_2717">
<rect width="24" height="32" fill="white" transform="translate(0.790039)"/>
</clipPath>
</defs>
</svg>
